HIERARCHY
ROOT Hips
{
	OFFSET 0.000000 0.000000 0.000000 
	CHANNELS 6 Xposition Yposition Zposition Zrotation Yrotation Xrotation
	JOINT LeftUpLeg
	{
		OFFSET 1.363060 -1.794630 0.839290 
		CHANNELS 3 Zrotation Yrotation Xrotation
		JOINT LeftLeg
		{
			OFFSET 2.448110 -6.726130 0.000000 
			CHANNELS 3 Zrotation Yrotation Xrotation
			JOINT LeftFoot
			{
				OFFSET 2.562200 -7.039590 0.000000 
				CHANNELS 3 Zrotation Yrotation Xrotation
				JOINT LeftToeBase
				{
					OFFSET 0.157640 -0.433110 2.322550 
					CHANNELS 3 Zrotation Yrotation Xrotation
					End Site
					{
						OFFSET 0.000000 0.000000 0.000000 
					}
				}
			}
		}
	}
	JOINT RightUpLeg
	{
		OFFSET -1.305520 -1.794630 0.839290 
		CHANNELS 3 Zrotation Yrotation Xrotation
		JOINT RightLeg
		{
			OFFSET -2.542530 -6.985550 0.000000 
			CHANNELS 3 Zrotation Yrotation Xrotation
			JOINT RightFoot
			{
				OFFSET -2.568260 -7.056230 0.000000 
				CHANNELS 3 Zrotation Yrotation Xrotation
				JOINT RightToeBase
				{
					OFFSET -0.164730 -0.452590 2.363150 
					CHANNELS 3 Zrotation Yrotation Xrotation
					End Site
					{
						OFFSET 0.000000 0.000000 0.000000 
					}
				}
			}
		}
	}
	JOINT Spine
	{
		OFFSET 0.028270 2.035590 -0.193380 
		CHANNELS 3 Zrotation Yrotation Xrotation
		JOINT Spine1
		{
			OFFSET 0.056720 2.048850 -0.042750 
			CHANNELS 3 Zrotation Yrotation Xrotation
			JOINT Neck1
			{
				OFFSET -0.054170 1.746240 0.172020 
				CHANNELS 3 Zrotation Yrotation Xrotation
				JOINT Head
				{
					OFFSET 0.104070 1.761360 -0.123970 
					CHANNELS 3 Zrotation Yrotation Xrotation
					End Site
					{
						OFFSET 0.000000 0.000000 0.000000 
					}
				}
			}
			JOINT LeftArm
			{
				OFFSET 3.362410 1.200890 -0.311210 
				CHANNELS 3 Zrotation Yrotation Xrotation
				JOINT LeftForeArm
				{
					OFFSET 4.983000 -0.000000 -0.000000 
					CHANNELS 3 Zrotation Yrotation Xrotation
					JOINT LeftHand
					{
						OFFSET 3.483560 -0.000000 -0.000000 
						CHANNELS 3 Zrotation Yrotation Xrotation
						JOINT LeftHandIndex1
						{
							OFFSET 0.715260 -0.000000 -0.000000 
							CHANNELS 3 Zrotation Yrotation Xrotation
							End Site
							{
								OFFSET 0.000000 0.000000 0.000000 
							}
						}
					}
				}
			}
			JOINT RightArm
			{
				OFFSET -3.136600 1.374050 -0.404650 
				CHANNELS 3 Zrotation Yrotation Xrotation
				JOINT RightForeArm
				{
					OFFSET -5.241900 -0.000000 -0.000000 
					CHANNELS 3 Zrotation Yrotation Xrotation
					JOINT RightHand
					{
						OFFSET -3.444170 -0.000000 -0.000000 
						CHANNELS 3 Zrotation Yrotation Xrotation
						JOINT RightHandIndex1
						{
							OFFSET -0.622530 -0.000000 -0.000000 
							CHANNELS 3 Zrotation Yrotation Xrotation
							End Site
							{
								OFFSET 0.000000 0.000000 0.000000 
							}
						}
					}
				}
			}
		}
	}
}
MOTION
Frames: 9
Frame Time: 0.041667
12.720257 17.837700 -18.037586 7.796119 -0.051093 3.264644 -21.937890 -3.006480 -3.330051 -0.020528 4.956833 15.562939 1.199353 -4.818051 4.767551 0.105400 -2.093900 -5.765300 5.364761 11.527595 -26.801919 -2.031763 -8.151683 25.094423 2.005475 -13.163613 -6.261652 -0.198300 -2.867700 7.910700 -0.652656 -1.348427 0.244327 -0.262931 -1.099588 -0.289049 1.778504 -1.641601 18.809956 0.806300 -0.979900 10.071100 -83.818260 -7.576000 8.498717 28.078656 -33.304947 -9.919693 2.178551 -1.892435 -175.996922 -7.125000 0.000000 0.000000 87.220371 0.824654 21.947511 -27.577227 37.038819 -10.027213 0.685558 -0.475921 -10.476362 7.125000 0.000000 0.000000 
12.709267 17.831518 -17.876460 8.264725 0.440770 3.480346 -22.327070 -2.996013 -2.403355 -0.122543 4.589779 14.520287 1.187466 -4.771431 5.342029 0.066100 -1.658700 -4.563200 4.304379 12.603767 -26.415168 -1.618925 -7.358732 22.589152 2.366449 -14.962017 -7.010701 -0.347600 -3.788000 10.480900 -0.682434 -1.482977 0.133506 -0.037322 -1.176548 -0.277853 1.790369 -1.782173 18.864331 0.833200 -1.061000 10.083900 -83.778639 -8.057794 9.388077 28.665037 -33.896464 -10.391048 2.120155 -1.766813 -176.791060 -7.125000 0.000000 0.000000 87.159990 1.006000 21.967673 -28.387239 37.814331 -10.569674 0.678711 -0.457773 -10.554022 7.125000 0.000000 0.000000 
12.700534 17.818467 -17.713176 8.630780 0.601211 3.650641 -22.656843 -2.657240 -1.690766 -0.192562 4.295300 13.694547 1.207598 -4.905231 5.722322 0.054000 -1.500000 -4.125600 3.280075 14.130996 -26.075211 -1.303196 -6.675652 20.563296 2.590305 -16.085163 -8.426189 -0.475900 -4.424000 12.272600 -0.675952 -1.542091 -0.050707 0.138236 -1.206631 -0.351178 1.815357 -1.678061 19.095402 0.896500 -1.032700 10.175500 -83.559230 -8.504161 10.365013 29.117586 -34.349198 -10.771907 2.010488 -1.650876 -178.157626 -7.125000 0.000000 0.000000 87.050739 1.064389 22.159248 -29.173148 38.545463 -11.104261 0.674935 -0.444666 -10.355107 7.125000 0.000000 0.000000 
12.691996 17.819350 -17.550481 8.496423 0.680263 3.897315 -22.406533 -2.205963 -1.003775 -0.297097 3.909357 12.567410 1.227504 -4.967563 6.261450 0.035600 -1.217800 -3.348400 2.788908 15.787782 -25.709641 -1.036810 -6.020339 18.734030 2.744561 -16.906490 -9.975594 -0.511800 -4.585600 12.730300 -0.588948 -1.426072 -0.162622 0.087940 -1.155515 -0.233808 1.682272 -1.712858 19.261250 0.845900 -1.062500 10.224700 -83.014982 -9.274057 11.645454 29.484971 -34.679847 -11.044570 2.046195 -1.642097 -179.674596 -7.125000 0.000000 0.000000 86.893147 1.450459 22.310772 -29.588107 38.927237 -11.390756 0.669781 -0.435757 -10.492209 7.125000 0.000000 0.000000 
12.679829 17.821509 -17.386020 8.738503 0.959987 4.097894 -22.517451 -1.970262 -0.166722 -0.377837 3.543658 11.525170 1.245820 -5.064235 6.677337 0.027200 -1.063900 -2.924600 1.884148 17.258833 -25.388839 -0.834830 -5.504306 17.276721 2.943234 -17.960336 -11.353722 -0.503100 -4.547200 12.621400 -0.732308 -1.236283 -0.415260 -0.203597 -1.061509 -0.401203 1.565451 -2.139508 19.399540 0.692500 -1.239200 10.167700 -85.017960 -10.275622 11.002126 29.832974 -34.914646 -11.243516 2.133156 -1.787809 -176.948923 -7.125000 0.000000 0.000000 86.937826 1.749867 22.264009 -29.708809 39.025111 -11.470644 0.670731 -0.426955 -10.934986 7.125000 0.000000 0.000000 
12.665110 17.814051 -17.220675 9.269625 1.496567 4.278029 -22.911268 -1.885928 0.612225 -0.417154 3.285203 10.835226 1.285336 -5.340666 7.145334 0.060300 -1.584800 -4.359600 0.678593 18.362950 -25.191967 -0.673631 -5.094312 16.059473 3.136345 -18.947713 -12.359034 -0.480500 -4.445200 12.332500 -0.903426 -1.404697 -0.190790 0.026719 -1.150355 -0.072264 1.388900 -2.113792 19.877522 0.603900 -1.229100 10.645800 -83.879093 -7.833037 13.406696 32.795250 -37.747206 -13.644457 2.135644 -1.508625 179.379202 -7.125000 0.000000 0.000000 86.763994 3.076931 22.794088 -30.017970 39.303799 -11.682690 0.670142 -0.428410 -11.056522 7.125000 0.000000 0.000000 
12.648232 17.814640 -17.052485 9.215679 1.982559 4.290981 -22.640609 -1.923976 1.426162 -0.459187 3.102100 10.275460 1.314435 -5.458557 7.806332 0.051500 -1.463900 -4.026200 0.288507 19.356435 -24.812704 -0.564634 -4.782360 15.228856 3.153239 -19.204518 -13.477099 -0.529400 -4.662500 12.948300 -0.898209 -1.456061 -0.308249 -0.128320 -1.200007 -0.053665 1.438975 -2.308467 19.761170 0.586000 -1.302800 10.471200 -84.229007 -11.000173 13.130493 31.198529 -36.193109 -12.331356 2.168179 -1.634565 -179.010610 -7.125000 0.000000 0.000000 86.821727 3.287746 22.973582 -30.687279 39.881520 -12.139601 0.685946 -0.422231 -11.125517 7.125000 0.000000 0.000000 
12.626938 17.812481 -16.882528 8.773717 2.382460 4.130997 -21.969180 -2.031724 2.244548 -0.487769 3.026094 9.973052 1.335137 -5.473125 8.284216 0.011600 -0.694800 -1.909500 0.450183 20.492691 -24.196468 -0.495558 -4.564208 14.728104 3.091562 -19.191660 -14.694901 -0.644500 -5.135800 14.296200 -0.525735 -1.741481 -0.020973 0.028426 -1.352618 0.228855 1.188786 -1.983526 20.137444 0.564800 -1.206800 10.852200 -83.674171 -10.941460 14.021115 32.471766 -37.342775 -13.304051 2.188191 -1.597074 179.051745 -7.125000 0.000000 0.000000 86.305119 4.841267 23.882215 -30.840513 40.013606 -12.240451 0.694497 -0.427136 -11.248061 7.125000 0.000000 0.000000 
12.606233 17.784417 -16.715024 8.852100 2.952888 4.044468 -21.859189 -2.147857 2.872479 -0.460112 3.140922 10.271566 1.403078 -5.912395 8.491495 0.000000 0.027500 0.075400 0.250426 20.797253 -23.807760 -0.442187 -4.427204 14.315297 3.048225 -19.085626 -15.047518 -0.709600 -5.383700 15.006200 -0.454691 -1.816186 -0.255998 0.131699 -1.368535 -0.045372 0.594611 -1.999721 20.085242 0.278100 -1.247000 10.629700 -83.546755 -10.458297 15.155970 33.384681 -38.139506 -14.058280 2.194144 -1.547309 177.940176 -7.125000 0.000000 0.000000 86.211122 5.061149 23.900197 -31.182379 40.309475 -12.474433 0.699462 -0.435682 -10.993543 7.125000 0.000000 0.000000 
